<mxfile host="app.diagrams.net" modified="2023-06-13T06:52:04.424Z" agent="Mozilla/5.0 (Windows NT 10.0; WOW64) AppleWebKit/537.36 (KHTML, like Gecko) Chrome/86.0.4240.198 Safari/537.36" etag="BSYE48-HDMpRijj3Eki4" version="21.3.8" type="github">
  <diagram id="C5RBs43oDa-KdzZeNtuy" name="Page-1">
    <mxGraphModel dx="2876" dy="1080" grid="1" gridSize="10" guides="1" tooltips="1" connect="1" arrows="1" fold="1" page="1" pageScale="1" pageWidth="827" pageHeight="1169" math="0" shadow="0">
      <root>
        <mxCell id="WIyWlLk6GJQsqaUBKTNV-0" />
        <mxCell id="WIyWlLk6GJQsqaUBKTNV-1" parent="WIyWlLk6GJQsqaUBKTNV-0" />
        <mxCell id="WIyWlLk6GJQsqaUBKTNV-2" value="" style="rounded=0;html=1;jettySize=auto;orthogonalLoop=1;fontSize=11;endArrow=block;endFill=0;endSize=8;strokeWidth=1;shadow=0;labelBackgroundColor=none;edgeStyle=orthogonalEdgeStyle;" parent="WIyWlLk6GJQsqaUBKTNV-1" source="WIyWlLk6GJQsqaUBKTNV-3" target="WIyWlLk6GJQsqaUBKTNV-6" edge="1">
          <mxGeometry relative="1" as="geometry">
            <Array as="points">
              <mxPoint x="420" y="100" />
            </Array>
          </mxGeometry>
        </mxCell>
        <mxCell id="vfeqiwEmPoFTVXFpcGIm-1" value="" style="edgeStyle=orthogonalEdgeStyle;rounded=0;orthogonalLoop=1;jettySize=auto;html=1;" edge="1" parent="WIyWlLk6GJQsqaUBKTNV-1" source="WIyWlLk6GJQsqaUBKTNV-3" target="vfeqiwEmPoFTVXFpcGIm-0">
          <mxGeometry relative="1" as="geometry" />
        </mxCell>
        <mxCell id="WIyWlLk6GJQsqaUBKTNV-3" value="登录" style="rounded=1;whiteSpace=wrap;html=1;fontSize=12;glass=0;strokeWidth=1;shadow=0;" parent="WIyWlLk6GJQsqaUBKTNV-1" vertex="1">
          <mxGeometry x="250" y="80" width="120" height="40" as="geometry" />
        </mxCell>
        <mxCell id="vfeqiwEmPoFTVXFpcGIm-3" style="edgeStyle=orthogonalEdgeStyle;rounded=0;orthogonalLoop=1;jettySize=auto;html=1;" edge="1" parent="WIyWlLk6GJQsqaUBKTNV-1" source="WIyWlLk6GJQsqaUBKTNV-6" target="WIyWlLk6GJQsqaUBKTNV-3">
          <mxGeometry relative="1" as="geometry">
            <mxPoint x="310" y="130" as="targetPoint" />
            <Array as="points">
              <mxPoint x="311" y="180" />
            </Array>
          </mxGeometry>
        </mxCell>
        <mxCell id="vfeqiwEmPoFTVXFpcGIm-90" style="edgeStyle=orthogonalEdgeStyle;rounded=0;orthogonalLoop=1;jettySize=auto;html=1;entryX=0.5;entryY=0;entryDx=0;entryDy=0;" edge="1" parent="WIyWlLk6GJQsqaUBKTNV-1" source="WIyWlLk6GJQsqaUBKTNV-6" target="vfeqiwEmPoFTVXFpcGIm-7">
          <mxGeometry relative="1" as="geometry">
            <Array as="points">
              <mxPoint x="420" y="240" />
              <mxPoint x="-240" y="240" />
            </Array>
          </mxGeometry>
        </mxCell>
        <mxCell id="vfeqiwEmPoFTVXFpcGIm-91" style="edgeStyle=orthogonalEdgeStyle;rounded=0;orthogonalLoop=1;jettySize=auto;html=1;entryX=0.5;entryY=0;entryDx=0;entryDy=0;" edge="1" parent="WIyWlLk6GJQsqaUBKTNV-1" source="WIyWlLk6GJQsqaUBKTNV-6" target="vfeqiwEmPoFTVXFpcGIm-10">
          <mxGeometry relative="1" as="geometry">
            <Array as="points">
              <mxPoint x="420" y="240" />
              <mxPoint x="25" y="240" />
            </Array>
          </mxGeometry>
        </mxCell>
        <mxCell id="vfeqiwEmPoFTVXFpcGIm-92" style="edgeStyle=orthogonalEdgeStyle;rounded=0;orthogonalLoop=1;jettySize=auto;html=1;exitX=0.5;exitY=1;exitDx=0;exitDy=0;entryX=0.5;entryY=0;entryDx=0;entryDy=0;" edge="1" parent="WIyWlLk6GJQsqaUBKTNV-1" source="WIyWlLk6GJQsqaUBKTNV-6" target="vfeqiwEmPoFTVXFpcGIm-11">
          <mxGeometry relative="1" as="geometry">
            <Array as="points">
              <mxPoint x="420" y="240" />
              <mxPoint x="285" y="240" />
            </Array>
          </mxGeometry>
        </mxCell>
        <mxCell id="vfeqiwEmPoFTVXFpcGIm-93" style="edgeStyle=orthogonalEdgeStyle;rounded=0;orthogonalLoop=1;jettySize=auto;html=1;entryX=0.5;entryY=0;entryDx=0;entryDy=0;" edge="1" parent="WIyWlLk6GJQsqaUBKTNV-1" source="WIyWlLk6GJQsqaUBKTNV-6" target="vfeqiwEmPoFTVXFpcGIm-12">
          <mxGeometry relative="1" as="geometry">
            <Array as="points">
              <mxPoint x="420" y="240" />
              <mxPoint x="565" y="240" />
            </Array>
          </mxGeometry>
        </mxCell>
        <mxCell id="vfeqiwEmPoFTVXFpcGIm-94" style="edgeStyle=orthogonalEdgeStyle;rounded=0;orthogonalLoop=1;jettySize=auto;html=1;" edge="1" parent="WIyWlLk6GJQsqaUBKTNV-1" source="WIyWlLk6GJQsqaUBKTNV-6" target="vfeqiwEmPoFTVXFpcGIm-13">
          <mxGeometry relative="1" as="geometry">
            <Array as="points">
              <mxPoint x="420" y="240" />
              <mxPoint x="855" y="240" />
            </Array>
          </mxGeometry>
        </mxCell>
        <mxCell id="vfeqiwEmPoFTVXFpcGIm-95" style="edgeStyle=orthogonalEdgeStyle;rounded=0;orthogonalLoop=1;jettySize=auto;html=1;entryX=0.5;entryY=0;entryDx=0;entryDy=0;" edge="1" parent="WIyWlLk6GJQsqaUBKTNV-1" source="WIyWlLk6GJQsqaUBKTNV-6" target="vfeqiwEmPoFTVXFpcGIm-14">
          <mxGeometry relative="1" as="geometry">
            <Array as="points">
              <mxPoint x="420" y="240" />
              <mxPoint x="1204" y="240" />
            </Array>
          </mxGeometry>
        </mxCell>
        <mxCell id="WIyWlLk6GJQsqaUBKTNV-6" value="用户验证" style="rhombus;whiteSpace=wrap;html=1;shadow=0;fontFamily=Helvetica;fontSize=12;align=center;strokeWidth=1;spacing=6;spacingTop=-4;" parent="WIyWlLk6GJQsqaUBKTNV-1" vertex="1">
          <mxGeometry x="370" y="140" width="100" height="80" as="geometry" />
        </mxCell>
        <mxCell id="vfeqiwEmPoFTVXFpcGIm-2" style="edgeStyle=orthogonalEdgeStyle;rounded=0;orthogonalLoop=1;jettySize=auto;html=1;" edge="1" parent="WIyWlLk6GJQsqaUBKTNV-1" source="vfeqiwEmPoFTVXFpcGIm-0" target="WIyWlLk6GJQsqaUBKTNV-6">
          <mxGeometry relative="1" as="geometry" />
        </mxCell>
        <mxCell id="vfeqiwEmPoFTVXFpcGIm-0" value="注册" style="whiteSpace=wrap;html=1;rounded=1;glass=0;strokeWidth=1;shadow=0;" vertex="1" parent="WIyWlLk6GJQsqaUBKTNV-1">
          <mxGeometry x="500" y="80" width="110" height="40" as="geometry" />
        </mxCell>
        <mxCell id="vfeqiwEmPoFTVXFpcGIm-4" value="NO" style="text;html=1;align=center;verticalAlign=middle;resizable=0;points=[];autosize=1;strokeColor=none;fillColor=none;" vertex="1" parent="WIyWlLk6GJQsqaUBKTNV-1">
          <mxGeometry x="320" y="158" width="40" height="30" as="geometry" />
        </mxCell>
        <mxCell id="vfeqiwEmPoFTVXFpcGIm-96" style="edgeStyle=orthogonalEdgeStyle;rounded=0;orthogonalLoop=1;jettySize=auto;html=1;entryX=0.5;entryY=0;entryDx=0;entryDy=0;" edge="1" parent="WIyWlLk6GJQsqaUBKTNV-1" source="vfeqiwEmPoFTVXFpcGIm-7" target="vfeqiwEmPoFTVXFpcGIm-24">
          <mxGeometry relative="1" as="geometry" />
        </mxCell>
        <mxCell id="vfeqiwEmPoFTVXFpcGIm-97" style="edgeStyle=orthogonalEdgeStyle;rounded=0;orthogonalLoop=1;jettySize=auto;html=1;entryX=0.5;entryY=0;entryDx=0;entryDy=0;" edge="1" parent="WIyWlLk6GJQsqaUBKTNV-1" source="vfeqiwEmPoFTVXFpcGIm-7" target="vfeqiwEmPoFTVXFpcGIm-26">
          <mxGeometry relative="1" as="geometry" />
        </mxCell>
        <mxCell id="vfeqiwEmPoFTVXFpcGIm-7" value="人事管理" style="rounded=1;whiteSpace=wrap;html=1;shadow=0;strokeWidth=1;spacing=6;spacingTop=-4;" vertex="1" parent="WIyWlLk6GJQsqaUBKTNV-1">
          <mxGeometry x="-295" y="280" width="110" height="40" as="geometry" />
        </mxCell>
        <mxCell id="vfeqiwEmPoFTVXFpcGIm-98" style="edgeStyle=orthogonalEdgeStyle;rounded=0;orthogonalLoop=1;jettySize=auto;html=1;exitX=0.5;exitY=1;exitDx=0;exitDy=0;entryX=0.5;entryY=0;entryDx=0;entryDy=0;" edge="1" parent="WIyWlLk6GJQsqaUBKTNV-1" source="vfeqiwEmPoFTVXFpcGIm-10" target="vfeqiwEmPoFTVXFpcGIm-44">
          <mxGeometry relative="1" as="geometry" />
        </mxCell>
        <mxCell id="vfeqiwEmPoFTVXFpcGIm-10" value="药房管理" style="rounded=1;whiteSpace=wrap;html=1;shadow=0;strokeWidth=1;spacing=6;spacingTop=-4;" vertex="1" parent="WIyWlLk6GJQsqaUBKTNV-1">
          <mxGeometry x="-30" y="280" width="110" height="40" as="geometry" />
        </mxCell>
        <mxCell id="vfeqiwEmPoFTVXFpcGIm-99" style="edgeStyle=orthogonalEdgeStyle;rounded=0;orthogonalLoop=1;jettySize=auto;html=1;entryX=0.5;entryY=0;entryDx=0;entryDy=0;" edge="1" parent="WIyWlLk6GJQsqaUBKTNV-1" source="vfeqiwEmPoFTVXFpcGIm-11" target="vfeqiwEmPoFTVXFpcGIm-45">
          <mxGeometry relative="1" as="geometry" />
        </mxCell>
        <mxCell id="vfeqiwEmPoFTVXFpcGIm-100" style="edgeStyle=orthogonalEdgeStyle;rounded=0;orthogonalLoop=1;jettySize=auto;html=1;entryX=0.5;entryY=0;entryDx=0;entryDy=0;" edge="1" parent="WIyWlLk6GJQsqaUBKTNV-1" source="vfeqiwEmPoFTVXFpcGIm-11" target="vfeqiwEmPoFTVXFpcGIm-61">
          <mxGeometry relative="1" as="geometry" />
        </mxCell>
        <mxCell id="vfeqiwEmPoFTVXFpcGIm-101" style="edgeStyle=orthogonalEdgeStyle;rounded=0;orthogonalLoop=1;jettySize=auto;html=1;entryX=0.5;entryY=0;entryDx=0;entryDy=0;" edge="1" parent="WIyWlLk6GJQsqaUBKTNV-1" source="vfeqiwEmPoFTVXFpcGIm-11" target="vfeqiwEmPoFTVXFpcGIm-60">
          <mxGeometry relative="1" as="geometry">
            <mxPoint x="320" y="360" as="targetPoint" />
          </mxGeometry>
        </mxCell>
        <mxCell id="vfeqiwEmPoFTVXFpcGIm-11" value="医生工作站" style="rounded=1;whiteSpace=wrap;html=1;shadow=0;strokeWidth=1;spacing=6;spacingTop=-4;" vertex="1" parent="WIyWlLk6GJQsqaUBKTNV-1">
          <mxGeometry x="230" y="280" width="110" height="40" as="geometry" />
        </mxCell>
        <mxCell id="vfeqiwEmPoFTVXFpcGIm-102" style="edgeStyle=orthogonalEdgeStyle;rounded=0;orthogonalLoop=1;jettySize=auto;html=1;entryX=0.5;entryY=0;entryDx=0;entryDy=0;" edge="1" parent="WIyWlLk6GJQsqaUBKTNV-1" source="vfeqiwEmPoFTVXFpcGIm-12" target="vfeqiwEmPoFTVXFpcGIm-78">
          <mxGeometry relative="1" as="geometry" />
        </mxCell>
        <mxCell id="vfeqiwEmPoFTVXFpcGIm-103" style="edgeStyle=orthogonalEdgeStyle;rounded=0;orthogonalLoop=1;jettySize=auto;html=1;entryX=0.5;entryY=0;entryDx=0;entryDy=0;" edge="1" parent="WIyWlLk6GJQsqaUBKTNV-1" source="vfeqiwEmPoFTVXFpcGIm-12" target="vfeqiwEmPoFTVXFpcGIm-80">
          <mxGeometry relative="1" as="geometry" />
        </mxCell>
        <mxCell id="vfeqiwEmPoFTVXFpcGIm-104" style="edgeStyle=orthogonalEdgeStyle;rounded=0;orthogonalLoop=1;jettySize=auto;html=1;" edge="1" parent="WIyWlLk6GJQsqaUBKTNV-1" source="vfeqiwEmPoFTVXFpcGIm-12" target="vfeqiwEmPoFTVXFpcGIm-79">
          <mxGeometry relative="1" as="geometry" />
        </mxCell>
        <mxCell id="vfeqiwEmPoFTVXFpcGIm-12" value="基础信息" style="rounded=1;whiteSpace=wrap;html=1;shadow=0;strokeWidth=1;spacing=6;spacingTop=-4;" vertex="1" parent="WIyWlLk6GJQsqaUBKTNV-1">
          <mxGeometry x="510" y="280" width="110" height="40" as="geometry" />
        </mxCell>
        <mxCell id="vfeqiwEmPoFTVXFpcGIm-105" style="edgeStyle=orthogonalEdgeStyle;rounded=0;orthogonalLoop=1;jettySize=auto;html=1;entryX=0.5;entryY=0;entryDx=0;entryDy=0;" edge="1" parent="WIyWlLk6GJQsqaUBKTNV-1" source="vfeqiwEmPoFTVXFpcGIm-13" target="vfeqiwEmPoFTVXFpcGIm-81">
          <mxGeometry relative="1" as="geometry" />
        </mxCell>
        <mxCell id="vfeqiwEmPoFTVXFpcGIm-106" style="edgeStyle=orthogonalEdgeStyle;rounded=0;orthogonalLoop=1;jettySize=auto;html=1;" edge="1" parent="WIyWlLk6GJQsqaUBKTNV-1" source="vfeqiwEmPoFTVXFpcGIm-13" target="vfeqiwEmPoFTVXFpcGIm-83">
          <mxGeometry relative="1" as="geometry" />
        </mxCell>
        <mxCell id="vfeqiwEmPoFTVXFpcGIm-108" style="edgeStyle=orthogonalEdgeStyle;rounded=0;orthogonalLoop=1;jettySize=auto;html=1;entryX=0.5;entryY=0;entryDx=0;entryDy=0;" edge="1" parent="WIyWlLk6GJQsqaUBKTNV-1" source="vfeqiwEmPoFTVXFpcGIm-13" target="vfeqiwEmPoFTVXFpcGIm-82">
          <mxGeometry relative="1" as="geometry" />
        </mxCell>
        <mxCell id="vfeqiwEmPoFTVXFpcGIm-13" value="统计分析" style="rounded=1;whiteSpace=wrap;html=1;shadow=0;strokeWidth=1;spacing=6;spacingTop=-4;" vertex="1" parent="WIyWlLk6GJQsqaUBKTNV-1">
          <mxGeometry x="800" y="280" width="110" height="40" as="geometry" />
        </mxCell>
        <mxCell id="vfeqiwEmPoFTVXFpcGIm-109" style="edgeStyle=orthogonalEdgeStyle;rounded=0;orthogonalLoop=1;jettySize=auto;html=1;" edge="1" parent="WIyWlLk6GJQsqaUBKTNV-1" source="vfeqiwEmPoFTVXFpcGIm-14" target="vfeqiwEmPoFTVXFpcGIm-85">
          <mxGeometry relative="1" as="geometry">
            <Array as="points">
              <mxPoint x="1204" y="360" />
              <mxPoint x="1065" y="360" />
            </Array>
          </mxGeometry>
        </mxCell>
        <mxCell id="vfeqiwEmPoFTVXFpcGIm-110" style="edgeStyle=orthogonalEdgeStyle;rounded=0;orthogonalLoop=1;jettySize=auto;html=1;entryX=0.5;entryY=0;entryDx=0;entryDy=0;" edge="1" parent="WIyWlLk6GJQsqaUBKTNV-1" source="vfeqiwEmPoFTVXFpcGIm-14" target="vfeqiwEmPoFTVXFpcGIm-84">
          <mxGeometry relative="1" as="geometry">
            <Array as="points">
              <mxPoint x="1204" y="360" />
              <mxPoint x="1155" y="360" />
            </Array>
          </mxGeometry>
        </mxCell>
        <mxCell id="vfeqiwEmPoFTVXFpcGIm-111" style="edgeStyle=orthogonalEdgeStyle;rounded=0;orthogonalLoop=1;jettySize=auto;html=1;entryX=0.5;entryY=0;entryDx=0;entryDy=0;" edge="1" parent="WIyWlLk6GJQsqaUBKTNV-1" source="vfeqiwEmPoFTVXFpcGIm-14" target="vfeqiwEmPoFTVXFpcGIm-87">
          <mxGeometry relative="1" as="geometry">
            <Array as="points">
              <mxPoint x="1204" y="360" />
              <mxPoint x="1245" y="360" />
            </Array>
          </mxGeometry>
        </mxCell>
        <mxCell id="vfeqiwEmPoFTVXFpcGIm-112" style="edgeStyle=orthogonalEdgeStyle;rounded=0;orthogonalLoop=1;jettySize=auto;html=1;entryX=0.5;entryY=0;entryDx=0;entryDy=0;" edge="1" parent="WIyWlLk6GJQsqaUBKTNV-1" source="vfeqiwEmPoFTVXFpcGIm-14" target="vfeqiwEmPoFTVXFpcGIm-86">
          <mxGeometry relative="1" as="geometry">
            <Array as="points">
              <mxPoint x="1204" y="360" />
              <mxPoint x="1335" y="360" />
            </Array>
          </mxGeometry>
        </mxCell>
        <mxCell id="vfeqiwEmPoFTVXFpcGIm-14" value="其他" style="rounded=1;whiteSpace=wrap;html=1;shadow=0;strokeWidth=1;spacing=6;spacingTop=-4;" vertex="1" parent="WIyWlLk6GJQsqaUBKTNV-1">
          <mxGeometry x="1149" y="280" width="110" height="40" as="geometry" />
        </mxCell>
        <mxCell id="vfeqiwEmPoFTVXFpcGIm-24" value="部门管理" style="whiteSpace=wrap;html=1;rounded=1;shadow=0;strokeWidth=1;spacing=6;spacingTop=-4;" vertex="1" parent="WIyWlLk6GJQsqaUBKTNV-1">
          <mxGeometry x="-330" y="390" width="90" height="40" as="geometry" />
        </mxCell>
        <mxCell id="vfeqiwEmPoFTVXFpcGIm-26" value="岗位管理" style="whiteSpace=wrap;html=1;rounded=1;shadow=0;strokeWidth=1;spacing=6;spacingTop=-4;" vertex="1" parent="WIyWlLk6GJQsqaUBKTNV-1">
          <mxGeometry x="-240" y="390" width="90" height="40" as="geometry" />
        </mxCell>
        <mxCell id="vfeqiwEmPoFTVXFpcGIm-44" value="药品分类" style="whiteSpace=wrap;html=1;rounded=1;shadow=0;strokeWidth=1;spacing=6;spacingTop=-4;" vertex="1" parent="WIyWlLk6GJQsqaUBKTNV-1">
          <mxGeometry x="-20" y="390" width="90" height="40" as="geometry" />
        </mxCell>
        <mxCell id="vfeqiwEmPoFTVXFpcGIm-45" value="套餐管理" style="whiteSpace=wrap;html=1;rounded=1;shadow=0;strokeWidth=1;spacing=6;spacingTop=-4;" vertex="1" parent="WIyWlLk6GJQsqaUBKTNV-1">
          <mxGeometry x="150" y="390" width="90" height="40" as="geometry" />
        </mxCell>
        <mxCell id="vfeqiwEmPoFTVXFpcGIm-60" value="药品请求" style="whiteSpace=wrap;html=1;rounded=1;shadow=0;strokeWidth=1;spacing=6;spacingTop=-4;" vertex="1" parent="WIyWlLk6GJQsqaUBKTNV-1">
          <mxGeometry x="330" y="390" width="90" height="40" as="geometry" />
        </mxCell>
        <mxCell id="vfeqiwEmPoFTVXFpcGIm-61" value="生产厂家" style="whiteSpace=wrap;html=1;rounded=1;shadow=0;strokeWidth=1;spacing=6;spacingTop=-4;" vertex="1" parent="WIyWlLk6GJQsqaUBKTNV-1">
          <mxGeometry x="240" y="390" width="90" height="40" as="geometry" />
        </mxCell>
        <mxCell id="vfeqiwEmPoFTVXFpcGIm-78" value="套餐管理" style="whiteSpace=wrap;html=1;rounded=1;shadow=0;strokeWidth=1;spacing=6;spacingTop=-4;" vertex="1" parent="WIyWlLk6GJQsqaUBKTNV-1">
          <mxGeometry x="430" y="390" width="90" height="40" as="geometry" />
        </mxCell>
        <mxCell id="vfeqiwEmPoFTVXFpcGIm-79" value="药品请求" style="whiteSpace=wrap;html=1;rounded=1;shadow=0;strokeWidth=1;spacing=6;spacingTop=-4;" vertex="1" parent="WIyWlLk6GJQsqaUBKTNV-1">
          <mxGeometry x="610" y="390" width="90" height="40" as="geometry" />
        </mxCell>
        <mxCell id="vfeqiwEmPoFTVXFpcGIm-80" value="生产厂家" style="whiteSpace=wrap;html=1;rounded=1;shadow=0;strokeWidth=1;spacing=6;spacingTop=-4;" vertex="1" parent="WIyWlLk6GJQsqaUBKTNV-1">
          <mxGeometry x="520" y="390" width="90" height="40" as="geometry" />
        </mxCell>
        <mxCell id="vfeqiwEmPoFTVXFpcGIm-81" value="套餐管理" style="whiteSpace=wrap;html=1;rounded=1;shadow=0;strokeWidth=1;spacing=6;spacingTop=-4;" vertex="1" parent="WIyWlLk6GJQsqaUBKTNV-1">
          <mxGeometry x="720" y="390" width="90" height="40" as="geometry" />
        </mxCell>
        <mxCell id="vfeqiwEmPoFTVXFpcGIm-82" value="药品请求" style="whiteSpace=wrap;html=1;rounded=1;shadow=0;strokeWidth=1;spacing=6;spacingTop=-4;" vertex="1" parent="WIyWlLk6GJQsqaUBKTNV-1">
          <mxGeometry x="900" y="390" width="90" height="40" as="geometry" />
        </mxCell>
        <mxCell id="vfeqiwEmPoFTVXFpcGIm-83" value="生产厂家" style="whiteSpace=wrap;html=1;rounded=1;shadow=0;strokeWidth=1;spacing=6;spacingTop=-4;" vertex="1" parent="WIyWlLk6GJQsqaUBKTNV-1">
          <mxGeometry x="810" y="390" width="90" height="40" as="geometry" />
        </mxCell>
        <mxCell id="vfeqiwEmPoFTVXFpcGIm-84" value="药品请求" style="whiteSpace=wrap;html=1;rounded=1;shadow=0;strokeWidth=1;spacing=6;spacingTop=-4;" vertex="1" parent="WIyWlLk6GJQsqaUBKTNV-1">
          <mxGeometry x="1110" y="390" width="90" height="40" as="geometry" />
        </mxCell>
        <mxCell id="vfeqiwEmPoFTVXFpcGIm-85" value="生产厂家" style="whiteSpace=wrap;html=1;rounded=1;shadow=0;strokeWidth=1;spacing=6;spacingTop=-4;" vertex="1" parent="WIyWlLk6GJQsqaUBKTNV-1">
          <mxGeometry x="1020" y="390" width="90" height="40" as="geometry" />
        </mxCell>
        <mxCell id="vfeqiwEmPoFTVXFpcGIm-86" value="药品请求" style="whiteSpace=wrap;html=1;rounded=1;shadow=0;strokeWidth=1;spacing=6;spacingTop=-4;" vertex="1" parent="WIyWlLk6GJQsqaUBKTNV-1">
          <mxGeometry x="1290" y="390" width="90" height="40" as="geometry" />
        </mxCell>
        <mxCell id="vfeqiwEmPoFTVXFpcGIm-87" value="生产厂家" style="whiteSpace=wrap;html=1;rounded=1;shadow=0;strokeWidth=1;spacing=6;spacingTop=-4;" vertex="1" parent="WIyWlLk6GJQsqaUBKTNV-1">
          <mxGeometry x="1200" y="390" width="90" height="40" as="geometry" />
        </mxCell>
      </root>
    </mxGraphModel>
  </diagram>
</mxfile>
